<mxfile host="app.diagrams.net" modified="2022-09-08T06:12:43.512Z" agent="5.0 (Windows NT 10.0; Win64; x64) AppleWebKit/537.36 (KHTML, like Gecko) Chrome/105.0.0.0 Safari/537.36" etag="3Ljx0q4sEQ7o-3CqdpL8" version="20.2.8" type="github">
  <diagram id="Vofl5bdccR7pekWCoRrU" name="第 1 页">
    <mxGraphModel dx="1237" dy="730" grid="1" gridSize="10" guides="1" tooltips="1" connect="1" arrows="1" fold="1" page="1" pageScale="1" pageWidth="827" pageHeight="1169" math="0" shadow="0">
      <root>
        <mxCell id="0" />
        <mxCell id="1" parent="0" />
        <mxCell id="JcYxAXZoqRxKvh5FQWdR-1" value="路径选择" style="strokeWidth=2;html=1;shape=mxgraph.flowchart.start_1;whiteSpace=wrap;" vertex="1" parent="1">
          <mxGeometry x="180" y="340" width="100" height="60" as="geometry" />
        </mxCell>
        <mxCell id="JcYxAXZoqRxKvh5FQWdR-3" style="edgeStyle=orthogonalEdgeStyle;rounded=0;orthogonalLoop=1;jettySize=auto;html=1;exitX=1;exitY=0.5;exitDx=0;exitDy=0;entryX=0;entryY=0.5;entryDx=0;entryDy=0;entryPerimeter=0;" edge="1" parent="1" source="JcYxAXZoqRxKvh5FQWdR-2" target="JcYxAXZoqRxKvh5FQWdR-1">
          <mxGeometry relative="1" as="geometry" />
        </mxCell>
        <mxCell id="JcYxAXZoqRxKvh5FQWdR-2" value="界面启动" style="html=1;strokeWidth=2;shape=manualInput;whiteSpace=wrap;rounded=1;size=26;arcSize=11;" vertex="1" parent="1">
          <mxGeometry x="30" y="340" width="100" height="60" as="geometry" />
        </mxCell>
      </root>
    </mxGraphModel>
  </diagram>
</mxfile>
